# xmcd
#
# Track frame offsets:
#	182
#	23310
#	44397
#	64182
#	84390
#	107055
#	126232
#	143297
#	159035
#	180862
#
# Disc length: 2645 seconds
#
# Revision: 0
# Processed by: cddbd v1.5.2PL0 Copyright (c) Steve Scherf et al.
# Submitted via: EZCDAudioConverter 7.0.6.1
#
DISCID=680a530a
DTITLE=Top Hits from Kenya vol. 2
DYEAR=1991
DGENRE=
TTITLE0=Teusi Five Band (Ted. Kalanda) - Jambo Bwana
TTITLE1=Nine Stars Orchestra (Prof. M.B. Naamen) - Mama Wa Kambo
TTITLE2=Teusi Five band (Joseph Ngala) - Moyo Tulia
TTITLE3=Tande Kumalo and Lo Six (Orch. Super Mazembe) - Bwana Nipe Pesa
TTITLE4=Safari Sound Band (Simon - Juma - Waiyaki) - Watoto
TTITLE5=Afro Souvenir Band (Mombasa Leopards - Swaleh Ali Salim) - Jambo Rafik
TTITLE5=i
TTITLE6=Forest People Band (Samy. Wanje) - Harusi (Hokziet)
TTITLE7=Kenya Police Band - Kenya Taifa Letu
TTITLE8=Safari Sound Band (John Izungu) - Safari Sound
TTITLE9=Mombasa Roots Band  - Reggae Sounds of Africa
EXTD=
EXTT0=
EXTT1=
EXTT2=
EXTT3=
EXTT4=
EXTT5=
EXTT6=
EXTT7=
EXTT8=
EXTT9=
PLAYORDER=
